<?xml version="1.0" encoding="UTF-8"?>
<svg width="120" height="24" viewBox="0 0 120 24" fill="none" xmlns="http://www.w3.org/2000/svg">
  <title>PM Tools Logo with Text</title>
  
  <!-- Logo Icon -->
  <path
    d="M4 6L14 6M4 12L20 12L16 8M20 12L16 16M4 18L10 18"
    stroke="#000000"
    stroke-width="2.5"
    stroke-linecap="round"
    stroke-linejoin="round"
  />
  
  <!-- Text: PM Tools -->
  <g transform="translate(32, 0)">
    <!-- P -->
    <path d="M0 5.5h5c1.7 0 3 1.3 3 3s-1.3 3-3 3H2v4H0V5.5zm2 1.8v2.4h3c.6 0 1.2-.5 1.2-1.2S5.6 7.3 5 7.3H2z" fill="#000000"/>
    
    <!-- M -->
    <path d="M11 5.5h2l2.5 6.5 2.5-6.5h2v10h-1.8V8.8L16 15h-1l-2.2-6.2v6.7H11V5.5z" fill="#000000"/>
    
    <!-- Space -->
    
    <!-- T -->
    <path d="M29 5.5h7v1.8h-2.6v8.2h-1.8V7.3H29V5.5z" fill="#000000"/>
    
    <!-- o -->
    <path d="M37 10.5c0-1.7 1.3-3 3-3s3 1.3 3 3-1.3 3-3 3-3-1.3-3-3zm4.2 0c0-.7-.5-1.2-1.2-1.2s-1.2.5-1.2 1.2.5 1.2 1.2 1.2 1.2-.5 1.2-1.2z" fill="#000000"/>
    
    <!-- o -->
    <path d="M44 10.5c0-1.7 1.3-3 3-3s3 1.3 3 3-1.3 3-3 3-3-1.3-3-3zm4.2 0c0-.7-.5-1.2-1.2-1.2s-1.2.5-1.2 1.2.5 1.2 1.2 1.2 1.2-.5 1.2-1.2z" fill="#000000"/>
    
    <!-- l -->
    <path d="M52 5.5h1.8v10H52V5.5z" fill="#000000"/>
    
    <!-- s -->
    <path d="M56 11.7c.2.6.8 1 1.5 1 .5 0 .9-.2.9-.5 0-.4-.4-.5-1.2-.7-1.2-.3-2-.7-2-1.8 0-1.1 1-1.9 2.3-1.9 1.4 0 2.3.8 2.5 1.8h-1.7c-.2-.4-.6-.6-1-.6-.4 0-.7.2-.7.5 0 .3.3.4 1 .6 1.3.3 2.2.7 2.2 1.9 0 1.2-1 2-2.5 2-1.6 0-2.6-.9-2.8-2h1.8z" fill="#000000"/>
  </g>
</svg>